/* XPM */
static char *appicon[] = {
/* columns rows colors chars-per-pixel */
"58 55 256 2",
"   c #000000",
".  c #0C0C0C",
"X  c #1C1C1C",
"o  c #242424",
"O  c #2A2A2A",
"+  c #323232",
"@  c gray24",
"#  c #464646",
"$  c #5E5E5E",
"%  c #505050",
"&  c #7E4C61",
"*  c #636363",
"=  c #6B6C69",
"-  c #7E6F75",
";  c #737373",
":  c #7E7E7D",
">  c #9F1313",
",  c #9C1B1B",
"<  c #A40000",
"1  c #A60C0C",
"2  c #A71111",
"3  c #991E21",
"4  c #992525",
"5  c #982C2C",
"6  c #92383B",
"7  c #B42C2C",
"8  c #B23636",
"9  c #914545",
"0  c #91554C",
"q  c #82545F",
"w  c #9B5353",
"e  c #B44444",
"r  c #876767",
"t  c #886666",
"y  c #876A6A",
"u  c #817F7F",
"i  c #F9EF0C",
"p  c #EAE71D",
"a  c #DADE2D",
"s  c #CCD63D",
"d  c #D0D838",
"f  c #DEE029",
"g  c #E3E224",
"h  c #9DBB6E",
"j  c #8FB37D",
"k  c #99B972",
"l  c #93B57A",
"z  c #97B775",
"x  c #93A978",
"c  c #A3BE68",
"v  c #BDCD4D",
"b  c #ADC45D",
"n  c #B3C757",
"m  c #B8CA52",
"M  c #B1C659",
"N  c #A7C164",
"B  c #AAC261",
"V  c #C3D145",
"C  c #C8D341",
"Z  c #61699C",
"A  c #6C7291",
"S  c #6C6689",
"D  c #5C6EA5",
"F  c #347FDF",
"G  c #3C75D4",
"H  c #176FFE",
"J  c #186FFD",
"K  c #1E73F6",
"L  c #1C71FC",
"P  c #2776EE",
"I  c #2978EA",
"U  c #2C75E7",
"Y  c #3275E2",
"T  c #327EE1",
"R  c #3D7BE2",
"E  c #3C7FED",
"W  c #3078EF",
"Q  c #2375F2",
"!  c #2976F6",
"~  c #2375FB",
"^  c #2C7AFC",
"/  c #2B79F9",
"(  c #347CF3",
")  c #3B7FF1",
"_  c #317DF9",
"`  c #77808A",
"'  c #7EA98F",
"]  c #7AA794",
"[  c #7CA991",
"{  c #72A39C",
"}  c #77A597",
"|  c #5C96B4",
" . c #5491BD",
".. c #5993BB",
"X. c #679CA7",
"o. c #699DA5",
"O. c #639AAC",
"+. c #689AB7",
"@. c #3D84D5",
"#. c #3681DC",
"$. c #3A82D8",
"%. c #3F81ED",
"&. c #3C83E1",
"*. c #3682FE",
"=. c #3C84FB",
"-. c #3D82F5",
";. c #4D8DC3",
":. c #4387CE",
">. c #488ACA",
",. c #4589CC",
"<. c #518FC0",
"1. c #4186D1",
"2. c #4A83DF",
"3. c #5D8AD4",
"4. c #5185DC",
"5. c #5B8BDB",
"6. c #5485D5",
"7. c #678DCC",
"8. c #6E92CD",
"9. c #6D9FCC",
"0. c #6A91D2",
"q. c #6E96D8",
"w. c #799DD7",
"e. c #7898CD",
"r. c #7FA0D7",
"t. c #4A84E4",
"y. c #4783E7",
"u. c #538DEC",
"i. c #568AE0",
"p. c #5B92ED",
"a. c #4385F4",
"s. c #4A8AF3",
"d. c #4389FD",
"f. c #4489FA",
"g. c #528EF2",
"h. c #4F91FD",
"j. c #5493FB",
"k. c #5D99FC",
"l. c #5690F0",
"z. c #6495E6",
"x. c #6297EE",
"c. c #6599ED",
"v. c #6D9DEC",
"b. c #6D99E3",
"n. c #729FE9",
"m. c #6A9DF2",
"M. c #659EFB",
"N. c #76A2EB",
"B. c #7BA4E9",
"V. c #7DA8EE",
"C. c #79A0E1",
"Z. c #6CA2FB",
"A. c #76A9FC",
"S. c #75A7F7",
"D. c #818181",
"F. c #8B8B8B",
"G. c #939393",
"H. c #9C9C9B",
"J. c #989997",
"K. c #89AF83",
"L. c #83AC8A",
"P. c #83A88A",
"I. c #8BB182",
"U. c #A3A3A2",
"Y. c #ABABAB",
"T. c #B0B1AF",
"R. c #ABB3BF",
"E. c #B3B3B3",
"W. c #BCBCBC",
"Q. c #B0B4B9",
"!. c #88A2CC",
"~. c #96A9C9",
"^. c #96AACB",
"/. c #9AB2CB",
"(. c #85A2D2",
"). c #8AA6D3",
"_. c #8EA9D4",
"`. c #83A5DC",
"'. c #93AFDC",
"]. c #9FB3D4",
"[. c #9FB8D8",
"{. c #A2AEC0",
"}. c #A2B2CA",
"|. c #AAB6C8",
" X c #B4BBC6",
".X c #BCBEC0",
"XX c #B4BDCB",
"oX c #A6BAD9",
"OX c #A9BBD7",
"+X c #B0BED4",
"@X c #8BACE3",
"#X c #85ACEB",
"$X c #8AAEEA",
"%X c #83A8E5",
"&X c #8FB1EA",
"*X c #91B1E6",
"=X c #9CB8E7",
"-X c #9BBAEC",
";X c #96B4E6",
":X c #83ADF3",
">X c #84B2FD",
",X c #8CB3F5",
"<X c #9DBDF2",
"1X c #92BAFC",
"2X c #99BCF6",
"3X c #A3BCE5",
"4X c #A3BDEA",
"5X c #B8C1CD",
"6X c #BBC4D3",
"7X c #B7C3D8",
"8X c #9DC1FD",
"9X c #ADC2E5",
"0X c #A4C1EE",
"qX c #ABC3EB",
"wX c #B2C5E3",
"eX c #BCCCE5",
"rX c #B7CBEC",
"tX c #BBCDEA",
"yX c #B1C7EB",
"uX c #A5C5FA",
"iX c #ADCBFC",
"pX c #A8C3F2",
"aX c #B7CDF1",
"sX c #BAD2FA",
"dX c #C6C6C6",
"fX c #CCCCCC",
"gX c #C4CBD5",
"hX c #CFD1D4",
"jX c #CAD2DE",
"kX c #D3D3D3",
"lX c #DCDCDC",
"zX c #D2D5D9",
"xX c #C2CFE2",
"cX c #C9D6EB",
"vX c #C4D2E7",
"bX c #D9DDE3",
"nX c #D3DCEA",
"mX c #D3DAE4",
"MX c #C3D6F6",
"NX c #CADDFC",
"BX c #D2DEF1",
"VX c #DFE1E4",
"CX c #DEE3EA",
"ZX c #D5E4FE",
"AX c #DEE9FC",
"SX c #D7E3F5",
"DX c #E4E4E4",
"FX c #ECECEC",
"GX c #E4E8ED",
"HX c #E9EDF3",
"JX c #ECF3FD",
"KX c #EFF1F3",
"LX c #F0F0F0",
"PX c #F3F7FB",
"IX c #FDFDFD",
"UX c None",
/* pixels */
"UXUXUXUXUXUXUXUXUXUXUX* * $ * $ * * $ * * * $ * * $ * $ * * $ * $ * $ * $ $ $ * $ * $ * $ UXUXUXUXUXUXUXUXUXUXUXUXUX",
"UXUXUXUXUXUXUXUXUXUX* A J.H.H.H.J.H.H.J.H.H.H.J.H.J.H.H.J.H.H.J.H.H.H.H.H.H.H.H.H.H.G.x * UXUXUXUXUXUXUXUXUXUXUXUXUX",
"UXUXUXUXUXUXUXUXUX* x W.Y.U.U.U.U.U.U.U.U.U.U.U.U.U.U.U.U.U.U.U.U.U.U.U.U.U.U.U.U.U.U.W.F.$ UXUXUXUXUXUXUXUXUXUXUXUX",
"UXUXUXUXUXUXUXUX$ - .XU.= = = = = = = = = = = = = = = = = = = = = = = = = = = = = = = J.dXG.* UXUXUXUXUXUXUXUXUXUXUX",
"UXUXUXUXUXUXUX* : fXT.= = = = = = = = = = = = = = = = = = = = = = = = = = = = = = = = = H.kXG.$ UXUXUXUXUXUXUXUXUXUX",
"UXUXUXUXUXUX* ; fXW.* * * * * * * * * * * * * * * * * * * * * * * $ * * * * * * * * * * * U.lXG.* UXUXUXUXUXUXUXUXUX",
"UXUXUXUXUX* : DXkXG.F.F.F.F.F.F.F.F.F.F.F.F.F.F.F.F.F.F.F.F.x D.F.F.F.F.F.F.F.F.F.F.F.F.F.D.W.FXY.$ UXUXUXUXUXUXUXUX",
"UXUXUXUXUX* LXPXlXDXlXDXlXDXlXDXlXlXDXFXDXDXDXDXDXDXDXDXDXDXDXDXDXDXDXDXDXDXDXDXDXDXDXDXDXDXDXLXIXG.* UXUXUXUXUXUXUX",
"UXUXUXUXUX* IXFXlXlXDXlXDXlXlXlXlXlXLXLXLXLXLXLXLXLXLXLXLXLXLXLXLXLXLXLXLXLXLXLXLXLXLXLXFXLXLXLXIXW.$ UXUXUXUXUXUXUX",
"UXUXUXUXUX= IXFXbXDXlXlXlXlXDXlXlXlXLXLXLXLXLXLXLXLXLXLXLXLXLXLXLXLXLXLXLXLXLXLXLXLXLXLXLXLXLXLXIXW.* UXUXUXUXUXUXUX",
"UXUXUXUXUX* IXFXlXDXDXlXlXDXlXlXlXlXLXLXLXLXLXLXLXLXLXLXLXLXLXLXLXLXLXLXLXLXFXLXFXLXLXLXLXLXLXLXIXW.$ UXUXUXUXUXUXUX",
"UXUXUXUXUX= IXDXlXlXlXlXlXlXlXlXlXlXFXLXLXLXFXLXLXLXLXLXLXLXLXLXFXLXLXLXLXLXLXLXLXLXLXLXLXLXLXLXIXW.* UXUXUXUXUXUXUX",
"UXUXUXUXUX= IXFXlXDXlXlXlXlXlXlXlXlXLXLXLXLXLXLXLXLXLXLXLXLXLXLXLXLXLXLXLXLXLXLXLXLXLXLXLXLXLXLXIXdX$ UXUXUXUXUXUXUX",
"UXUXUXUXUX* IXFXlXlXlXlXlXlXlXlXlXlXLXLXLXLXLXLXLXLXLXLXLXLXLXLXLXLXLXLXLXLXLXLXLXLXLXLXLXLXLXLXIXW.* UXUXUXUXUXUXUX",
"UXUXUXUXUX* IXDXlXlXlXlXlXlXlXlXlXlXLXLXLXLXLXLXLXLXLXLXLXLXLXLXLXLXFXLXLXLXLXLXLXLXLXLXLXLXLXLXIXdX$ UXUXUXUXUXUXUX",
"UXUXUXUXUX= IXGXlXlXlXlXkXlXlXkXkXlXLXLXLXLXLXLXLXFXLXLXLXLXFXLXLXLXLXLXLXLXLXLXFXLXLXLXLXLXLXLXIXW.* UXUXUXUXUXUXUX",
"UXUXUXUXUX* IXDXkXlXkXlXkXlXlXlXlXlXFXLXLXLXLXLXLXLXLXLXFXLXLXLXLXLXLXLXLXLXLXLXLXLXLXLXLXLXLXLXIXW.* UXUXUXUXUXUXUX",
"UXUXUXUXUX= IXFXlXlXlXlXlXlXkXkXlXkXFXLXLXLXFXLXLXLXLXLXLXLXLXLXLXLXLXLXLXFXlXkXkXlXDXLXLXLXLXLXIX.X$ UXUXUXUXUXUXUX",
"UXUXUXUXUX= IXDXlXkXkXlXkXlXkXlXkXlXFXLXLXLXLXLXLXLXLXLXLXLXLXLXLXLXkXE.G.u u u u u u D.H.W.DXLXIXdX$ UXUXUXUXUXUXUX",
"UXUXUXUXUX* IXDXkXlXlXkXlXkXlXkXlXkXLXLXLXLXLXLXLXLXLXLXLXLXLXFXdXG.u G.E.kXFXLXHXFXlXfXU.F.u U.DXW.* UXUXUXUXUXUXUX",
"UXUXUXUXUX* IXDXlXlXkXlXkXkXlXlXkXkXLXLXLXLXLXLXLXLXLXLXLXLXlXG.x Y.VXPXPXIXPXLXLXPXPXIXPXLXkXG.D.H.* UXUXUXUXUXUXUX",
"UXUXUXUXUX= IXDXkXkXkXkXlXkXkXkXkXkXFXLXLXLXLXLXLXLXLXLXLXW.u H.FXIXKXDXkXkXfXfXkXkXlXlXFXPXPXPXfXF.: UXUXUXUXUXUXUX",
"UXUXUXUXUX* IXDXkXlXlXkXlXkXkXkXkXkXFXLXLXLXLXLXLXLXLXFXY.u dXIXPXlXW.dXdXfXfXfXkXkXkXkXDXDXFXLXIXFXG.D.UXUXUXUXUXUX",
"UXUXUXUXUX= IXDXkXkXkXkXkXkXkXkXlXkXFXLXLXLXLXFXLXLXLXE.D.lXIXDXW.W.W.dXdXdXfXfXfXkXkXlXDXFXFXFXLXPXLXU.D.UXUXUXUXUX",
"UXUXUXUXUX* IXDXkXkXkXkXkXkXkXkXkXkXe 8 8 8 8 8 8 8 w u kXIXlXE.W.W.W.W..XdXdXfXfXfXkXzXDXDXDXGXFXLXIXLXH.u UXUXUXUX",
"UXUXUXUXUX= IXDXkXkXkXkXkXkXkXkXkXkX2 < < < < < < 2 u dXIXDXW.W.E.W.W.W. XXXXXXX7X6X6XmXbXDXDXFXFXFXLXPXLXF.D.UXUXUX",
"UXUXUXUXUX= IXDXkXkXkXkXkXfXkXkXkXkX2 < < < < < < t U.IXFXdXW.W.E.Q.|.{.}.}.].].}.oXoXwXvXcXnXCXFXFXFXLXPXlXD.UXUXUX",
"UXUXUXUXUX* IXDXkXkXkXkXkXkXkXfXkXfX2 < < < < < 5 ` FXPXfXdXdXW.Q.R.~.~.~._.(.(.(.`.'.4XqXyXrXvXnXGXFXFXLXLXY.D.UXUX",
"UXUXUXUXUX= IXDXfXkXkXkXfXkXkXkXhXfX2 < < < < 1 t T.IXDXfXdXdX X}.^.!.!.e.8.7.0.0.0.q.#X&X2X4XqXtXcXnXDXDXLXlXD.UXUX",
"UXUXUXUXUX* IXlXkXkXkXfXkXkXfXfXfXkX2 < < < < 2 x DXPXkXkXfX6X|.^.(.(.7.7.3.3.5.5.5.z.v.n.V.,X-X0XqXwXxXlXFXLXH.D.UX",
"UXUXUXUXUX* IXDXfXkXfXkXfXkXfXkXkXfX2 < < < < 9 F.JXFXzXkXgX+X]._.`.7.3.6.4.t.2.y.y.g.p.p.x.N.V.#X;X=XwXxXbXLXfXD.UX",
"UXUXUXUXUX= IXlXkXfXkXfXkXfXkXfXfXfX2 < < < < t E.PXDXlXhX7XoX'.`.q.3.4.2.R G Y Y Y ) f.s.s.u.p.v.B.$X=XwXxXGXDXD.UX",
"UXUXUXUXUX* IXlXfXkXfXkXfXkXfXfXfXfX2 < < < < D.kXIXDXlXjX7X=X`.C.0.t.t.R U D 6 5 & G ! _ ( E a.l.c.n.$X=XwXnXFXF.u ",
"UXUXUXUXUX= IXDXkXfXkXfXfXfXkXfXfXhX2 < < < > D.DXPXDXbXgX9X;X%Xb.i.t.E U Z < < < < 3 U L ~ ! ( a.g.c.B.$X=XtXFXJ.u ",
"UXUXUXUXUX* IXlXfXfXhXfXfXfXfXfXfXfX1 < < < , u FXIXFXbXeX3X*XB.z.t.%.W P 4 < < < < < S I K J ~ _ a.g.x.n.$X4XLXU.u ",
"UXUXUXUXUX= IXDXfXfXfXfXfXfXfXfXfXdX1 < < < 4 u FXPXFXmXtX4X$XN.p.y.( ! T 2 < < < < < q :.F U K ~ / a.g.c.B.;XFXY.u ",
"UXUXUXUXUX= IXlXfXfXfXfXfXfXfXfXfXfX1 < < < 2 ` FXIXFXnXrX-X#Xv.u.y.! K P 4 < < < < < - |  .@.F Q J _ a.l.v.@XFXU.A ",
"UXUXUXUXUX* IXlXfXfXfXfXfXfXfXfXfXfX1 < < < > D.DXIXKXnXrX-X#Xm.s.) ! J I A < < < < , ] } o.| >.F ~ ~ _ s.p.#XFXF.x ",
"UXUXUXUXUX* IXlXfXfXfXdXdXfXfXfXfXdX1 < < < < D.fXIXLXnXaX<X:Xm.g.( ~ L T ;.A 6 4 0 x k j L.{ | >.Y J ~ ) g.*XDXF.u ",
"UXUXUXUXUX= IXlXfXfXfXfXfXfXdXfXfXdX1 < < < < r T.IXPXSXaX<X:Xm.j.-.~ K $. .{ L.l N M M b k K.{ ..1.U L _ a.4XfXu UX",
"UXUXUXUXUX= IXlXdXfXdXfXdXfXdXdXfXdX1 < < < < 9 F.PXIXSXsX<X:XZ.j.=.~ Q @...{ I.c m C s V M k L.o.;.F J ! -.vXW.D.UX",
"UXUXUXUXUX* IXlXfXdXfXfXdXfXdXfXdXdX1 < < < < , x DXIXAXMXuX1XS.k.=.~ Q @...{ j N V f g a V B j { | @.P ~ p.mXF.u UX",
"UXUXUXUXUX* IXlXdXdXfXdXfXdXdXdXdXfX1 < < < < < q U.IXJXNXiX1XA.k.=.~ K $. .{ I.N V f i p d n z [ O.>.I L wXdXx UXUX",
"UXUXUXUXUX= IXlXfXdXdXdXdXdXfXdXdXdX< < < < < < 5 A DXPXZXsX8XA.Z.d.^ H T  .o.L.h m d g f s n k ' O.>.I g.lXJ.: UXUX",
"UXUXUXUXO * IXlXfXdXdXfXdXdXdXdXdXdX< < < < < < < y H.IXJXsXuX>XZ.h.*.L I :.| } j N m C s v b l ] O.>.#.jXW.D.UXUXUX",
"UXUXUXUXO = IXlXdXdXdXdXdXdXdXdXdXdX1 < < < < < < 2 u W.IXJXiX1XA.k.=.~ L #.<.o.[ j N b M N h I.{ +.>.7XfXD.: UXUXUX",
"UXUXUXUXO * IXDXfXkXkXfXfXkXfXfXfXkX8 7 7 7 7 7 7 7 w u fXIXZX8X>XZ.j.*.L P @. .o.] I.l z l K.] X.<.|.fXF.: UXUXUXUX",
"UXUXUXUXUX* DXIXIXIXIXIXIXIXIXIXIXIXIXIXIXIXIXIXIXFXDXU.D.kXIXAX8XA.k.d.^ H I @. .O.{ ] ] ] { X.+.5XdXG.: UXUXUXUXUX",
"UXUXUXUXUX@ * A u u : : : : : : : u : : : : : : : = = * ; D.W.PXJXiXZ.j.d.^ J U $.>...| X.O.+./.fXW.F.: + UXUXUXUXUX",
"UXUXUXUXUXUXX + + + O O O O O O O O O O O O O O o o X X X % D.G.VXIXJX<XM.=.^ J Q T @.,.9.[.kXfXH.x ; o UXUXUXUXUXUX",
"UXUXUXUXUXUXUXUXUXUX                                        o ; ` U.kXFXPXHXMXpX0X0XxXVXlXfXY.F.A $ . UXUXUXUXUXUXUX",
"UXUXUXUXUXUXUXUXUXUXUXUXUXUXUXUXUXUXUXUXUXUXUXUXUXUXUXUXUX      @ ; x ` H.W.fXkXfXfXW.Y.G.D.` * O UXUXUXUXUXUXUXUXUX",
"UXUXUXUXUXUXUXUXUXUXUXUXUXUXUXUXUXUXUXUXUXUXUXUXUXUXUXUXUXUXUXUXUXUX+ $ - A x u D.u ` u = % UXUXUXUXUXUXUXUXUXUXUXUX",
"UXUXUXUXUXUXUXUXUXUXUXUXUXUXUXUXUXUXUXUXUXUXUXUXUXUXUXUXUXUXUXUXUXUXUXUXUXUXUXUXUXUXUXUXUXUXUXUXUXUXUXUXUXUXUXUXUXUX",
"UXUXUXUXUXUXUXUXUXUXUXUXUXUXUXUXUXUXUXUXUXUXUXUXUXUXUXUXUXUXUXUXUXUXUXUXUXUXUXUXUXUXUXUXUXUXUXUXUXUXUXUXUXUXUXUXUXUX"
};
